<svg xmlns="http://www.w3.org/2000/svg" viewBox="0 0 250 150" width="250" height="150">
	<style>
		tspan { white-space:pre }
		.shp0 { fill: #ff0000 } 
		.shp1 { fill: #ff4d4d } 
	</style>
	<path id="Background" class="shp0" d="M125 -261.6L125 -260L125 -258.4L125 -261.6Z" />
	<path id="Shape 2" class="shp1" d="M168.35 47.73C172.88 55.77 175.15 64.54 175.15 74.05C175.15 83.57 172.88 92.34 168.35 100.38C163.82 108.41 157.67 114.78 149.92 119.47C142.16 124.16 133.68 126.51 124.5 126.51C115.31 126.51 106.84 124.16 99.08 119.47C91.32 114.78 85.18 108.41 80.65 100.38C76.12 92.34 73.85 83.57 73.85 74.05C73.85 64.54 76.12 55.77 80.65 47.73C85.18 39.7 91.32 33.33 99.08 28.64C106.84 23.95 115.31 21.6 124.5 21.6C133.68 21.6 142.16 23.95 149.92 28.64C157.67 33.33 163.82 39.7 168.35 47.73ZM160.39 9.93C149.43 3.31 137.47 0 124.5 0C111.53 0 99.56 3.31 88.61 9.93C77.66 16.55 68.98 25.54 62.59 36.88C56.2 48.23 53 60.62 53 74.05C53 87.49 56.2 99.88 62.59 111.22C68.98 122.57 77.66 131.56 88.61 138.18C99.56 144.8 111.53 148.11 124.5 148.11C137.47 148.11 149.43 144.8 160.39 138.18C171.34 131.56 180.02 122.57 186.41 111.22C192.8 99.88 196 87.49 196 74.05C196 60.62 192.8 48.23 186.41 36.88C180.02 25.54 171.34 16.55 160.39 9.93Z" />
</svg>