<svg xmlns="http://www.w3.org/2000/svg" viewBox="0 0 250 150" width="250" height="150">
	<style>
		tspan { white-space:pre }
		.shp0 { fill: #ff0000 } 
		.shp1 { fill: #ff4d4d } 
	</style>
	<path id="Background" class="shp0" d="M125 -261.6L125 -260L125 -258.4L125 -261.6Z" />
	<path id="Shape 1" class="shp1" d="M195.51 111.63L158.89 75L195.51 38.37C197.84 36.05 199 33.23 199 29.9C199 26.58 197.84 23.76 195.51 21.43L178.57 4.49C176.24 2.16 173.42 1 170.1 1C166.77 1 163.95 2.16 161.63 4.49L125 41.11L88.37 4.49C86.05 2.16 83.22 1 79.9 1C76.58 1 73.76 2.16 71.43 4.49L54.49 21.43C52.16 23.76 51 26.58 51 29.9C51 33.23 52.16 36.05 54.49 38.37L91.11 75L54.49 111.63C52.16 113.95 51 116.78 51 120.1C51 123.42 52.16 126.24 54.49 128.57L71.43 145.51C73.76 147.84 76.58 149 79.9 149C83.22 149 86.05 147.84 88.37 145.51L125 108.89L161.63 145.51C163.95 147.84 166.77 149 170.1 149C173.42 149 176.24 147.84 178.57 145.51L195.51 128.57C197.84 126.24 199 123.42 199 120.1C199 116.78 197.84 113.95 195.51 111.63L195.51 111.63Z" />
</svg>